<?xml version="1.0" encoding="utf-8"?>
<!-- Generator: Adobe Illustrator 23.0.2, SVG Export Plug-In . SVG Version: 6.00 Build 0)  -->
<svg version="1.1" id="Layer_1" xmlns="http://www.w3.org/2000/svg" xmlns:xlink="http://www.w3.org/1999/xlink" x="0px" y="0px"
	 viewBox="0 0 66 66" style="enable-background:new 0 0 66 66;" xml:space="preserve">
<style type="text/css">
	.st0{fill:none;}
	.st1{fill:#FFFFFF;}
</style>
<g transform="translate(-267 -175)">
	<rect x="267" y="175" class="st0" width="66" height="66"/>
	<g transform="translate(-374)">
		<path class="st1" d="M681.6,189.2h-15.2c-6.2,0-11.2,5-11.2,11.2v15.2c0,6.2,5,11.2,11.2,11.2h15.2c6.2,0,11.2-5,11.2-11.2v-15.2
			C692.8,194.2,687.8,189.2,681.6,189.2z M689.1,215.6c0,4.1-3.3,7.4-7.4,7.4l0,0h-15.2c-4.1,0-7.4-3.3-7.4-7.4l0,0v-15.2
			c0-4.1,3.3-7.4,7.4-7.4h15.2c4.1,0,7.4,3.3,7.4,7.4c0,0,0,0,0,0V215.6z"/>
		<path class="st1" d="M674,198.3c-5.4,0-9.7,4.4-9.7,9.7s4.4,9.7,9.7,9.7c5.4,0,9.7-4.4,9.7-9.7C683.7,202.6,679.4,198.3,674,198.3
			z M674,214c-3.3,0-6-2.7-6-6s2.7-6,6-6c3.3,0,6,2.7,6,6l0,0C680,211.3,677.3,214,674,214L674,214L674,214z"/>
		<circle class="st1" cx="683.8" cy="198.3" r="2.3"/>
	</g>
</g>
</svg>
