<?xml version="1.0" encoding="utf-8"?>
<!-- Generator: Adobe Illustrator 23.0.2, SVG Export Plug-In . SVG Version: 6.00 Build 0)  -->
<svg version="1.1" id="Layer_1" xmlns="http://www.w3.org/2000/svg" xmlns:xlink="http://www.w3.org/1999/xlink" x="0px" y="0px"
	 viewBox="0 0 66 66" style="enable-background:new 0 0 66 66;" xml:space="preserve">
<style type="text/css">
	.st0{fill:none;}
	.st1{fill-rule:evenodd;clip-rule:evenodd;fill:#FFFFFF;}
</style>
<g transform="translate(-184 -175)">
	<rect x="184" y="175" class="st0" width="66" height="66"/>
	<g transform="translate(-51)">
		<path class="st1" d="M254.4,200c2.3,0.1,4.3-1.7,4.4-4c-0.1-2.3-2.1-4.1-4.4-4c-2.3-0.1-4.3,1.7-4.4,4
			C250.1,198.3,252.1,200.1,254.4,200"/>
		<path class="st1" d="M251,225.6h7.8V203H251V225.6z"/>
		<path class="st1" d="M269.8,213c0-2.6,1.2-5.1,4.2-5.1c2.9,0,3.6,2.5,3.6,5.1v12.3h7.8v-12.8c0-8.9-5.3-10.5-8.5-10.5
			s-5,1.1-7.1,3.8v-3H262v22.6h7.8V213z"/>
	</g>
</g>
</svg>
