<?xml version="1.0" encoding="utf-8"?>
<!-- Generator: Adobe Illustrator 23.0.2, SVG Export Plug-In . SVG Version: 6.00 Build 0)  -->
<svg version="1.1" id="Layer_1" xmlns="http://www.w3.org/2000/svg" xmlns:xlink="http://www.w3.org/1999/xlink" x="0px" y="0px"
	 viewBox="0 0 66 66" style="enable-background:new 0 0 66 66;" xml:space="preserve">
<style type="text/css">
	.st0{fill:none;}
	.st1{fill-rule:evenodd;clip-rule:evenodd;fill:#FFFFFF;}
</style>
<g transform="translate(-110 -175)">
	<rect x="110" y="175" class="st0" width="66" height="66"/>
	<path class="st1" d="M159,195.6c-1.3,0.8-2.8,1.3-4.4,1.6l0,0c-2.7-2.8-7.1-2.9-9.9-0.2c-1.8,1.7-2.5,4.2-2,6.6l0,0
		c-5.6-0.2-10.9-2.9-14.5-7.3c-1.8,3.2-0.9,7.2,2.1,9.3c-1.1,0.1-2.2-0.2-3.1-0.8c-0.1,3.3,2.2,6.2,5.4,6.9
		c-0.9,0.3-1.9,0.4-2.9,0.2c0.2,2.1,3.1,4.8,6.3,4.8c-1.1,1.3-5.4,3.7-10.1,2.9c3.3,2,7.1,3.1,11,3.1c10.8,0.1,19.6-8.6,19.7-19.3
		c0-0.4,0-0.8,0-1.2c0,0,0,0,0,0c0,0,0-0.1,0-0.1s0-0.1,0-0.1c1.4-1,2.5-2.2,3.4-3.6c-1.2,0.6-2.5,1-3.9,1.1
		C157.5,198.5,158.5,197.2,159,195.6"/>
</g>
</svg>
