<?xml version="1.0" encoding="utf-8"?>
<!-- Generator: Adobe Illustrator 23.0.2, SVG Export Plug-In . SVG Version: 6.00 Build 0)  -->
<svg version="1.1" id="Layer_1" xmlns="http://www.w3.org/2000/svg" xmlns:xlink="http://www.w3.org/1999/xlink" x="0px" y="0px"
	 viewBox="0 0 32 32" style="enable-background:new 0 0 32 32;" xml:space="preserve">
<style type="text/css">
	.st0{fill:#666666;}
</style>
<g id="Search">
	<polygon class="st0" points="0.1,26.7 9.8,17.9 14.1,22.6 4.4,31.5 0.1,26.7 	"/>
	<path class="st0" d="M20.6,0.9c1.2,0,2.4,0.2,3.6,0.6c5.7,2,8.7,8.2,6.7,13.8c-1.6,4.5-5.8,7.3-10.3,7.3c-1.2,0-2.4-0.2-3.6-0.6
		c-5.7-2-8.7-8.2-6.7-13.8C11.9,3.8,16.1,0.9,20.6,0.9 M20.6,3.9c-3.4,0-6.4,2.1-7.5,5.3c-0.7,2-0.6,4.2,0.4,6.1
		c0.9,1.9,2.5,3.3,4.5,4c0.8,0.3,1.7,0.4,2.6,0.4c3.4,0,6.4-2.1,7.5-5.3c0.7-2,0.6-4.2-0.4-6.1c-0.9-1.9-2.5-3.3-4.5-4l0,0
		C22.4,4,21.5,3.9,20.6,3.9L20.6,3.9z"/>
</g>
</svg>
